<?xml version="1.0" standalone="no"?>
<!DOCTYPE svg PUBLIC "-//W3C//DTD SVG 1.1//EN" "http://www.w3.org/Graphics/SVG/1.1/DTD/svg11.dtd" >
<svg xmlns="http://www.w3.org/2000/svg">
<metadata>
Created by FontForge 20120731 at Sun Sep 18 11:16:33 2016
 By admin
</metadata>
<defs>
<font id="iconfont" horiz-adv-x="1024" >
  <font-face 
    font-family="iconfont"
    font-weight="500"
    font-stretch="normal"
    units-per-em="1024"
    panose-1="2 0 6 3 0 0 0 0 0 0"
    ascent="896"
    descent="-128"
    x-height="792"
    bbox="-0.58209 -128 8909 895.942"
    underline-thickness="50"
    underline-position="-100"
    unicode-range="U+0078-E61C"
  />
<missing-glyph horiz-adv-x="374" 
d="M34 0v682h272v-682h-272zM68 34h204v614h-204v-614z" />
    <glyph glyph-name=".notdef" horiz-adv-x="374" 
d="M34 0v682h272v-682h-272zM68 34h204v614h-204v-614z" />
    <glyph glyph-name=".null" horiz-adv-x="0" 
 />
    <glyph glyph-name="nonmarkingreturn" horiz-adv-x="341" 
 />
    <glyph glyph-name="x" unicode="x" horiz-adv-x="1001" 
d="M281 543q-27 -1 -53 -1h-83q-18 0 -36.5 -6t-32.5 -18.5t-23 -32t-9 -45.5v-76h912v41q0 16 -0.5 30t-0.5 18q0 13 -5 29t-17 29.5t-31.5 22.5t-49.5 9h-133v-97h-438v97zM955 310v-52q0 -23 0.5 -52t0.5 -58t-10.5 -47.5t-26 -30t-33 -16t-31.5 -4.5q-14 -1 -29.5 -0.5
t-29.5 0.5h-32l-45 128h-439l-44 -128h-29h-34q-20 0 -45 1q-25 0 -41 9.5t-25.5 23t-13.5 29.5t-4 30v167h911zM163 247q-12 0 -21 -8.5t-9 -21.5t9 -21.5t21 -8.5q13 0 22 8.5t9 21.5t-9 21.5t-22 8.5zM316 123q-8 -26 -14 -48q-5 -19 -10.5 -37t-7.5 -25t-3 -15t1 -14.5
t9.5 -10.5t21.5 -4h37h67h81h80h64h36q23 0 34 12t2 38q-5 13 -9.5 30.5t-9.5 34.5q-5 19 -11 39h-368zM336 498v228q0 11 2.5 23t10 21.5t20.5 15.5t34 6h188q31 0 51.5 -14.5t20.5 -52.5v-227h-327z" />
    <glyph glyph-name="uniE600" unicode="&#xe600;" 
d="M586 -10q35 45 41 45q156 29 251 138.5t95 258.5q1 112 -60.5 205.5t-168 147t-232.5 53.5t-233 -53.5t-169 -147t-62 -205.5q0 -149 96 -258.5t250 -138.5q5 0 41 -45q27 -35 42.5 -49.5t31.5 -14.5q15 0 30.5 14t46.5 50zM621 93q-14 -2 -26 -14.5t-41 -49.5l-42 -45
l-10 10q-6 6 -25 32q-32 40 -44.5 52.5t-26.5 14.5q-138 24 -222.5 119.5t-84.5 225.5q0 95 55.5 176t151.5 128.5t209 47.5t209 -47.5t151.5 -128.5t55.5 -176q-2 -132 -86.5 -226.5t-223.5 -118.5zM282 425.5q0 19.5 13 34t31.5 14.5t31.5 -14.5t13 -34t-13 -33.5
t-31.5 -14t-31.5 14t-13 33.5zM467 425.5q0 19.5 13 34t32 14.5t32 -14.5t13 -34t-13 -33.5t-32 -14t-32 14t-13 33.5zM653 425.5q0 19.5 13 34t31.5 14.5t31.5 -14.5t13 -34t-13 -33.5t-31.5 -14t-31.5 14t-13 33.5z" />
    <glyph glyph-name="uniE601" unicode="&#xe601;" horiz-adv-x="1026" 
d="M280 434q-29 0 -50 20l-194 195q-7 7 -7 16.5t7 16.5t16.5 7t16.5 -7l194 -195q7 -7 16.5 -7t16.5 7l110 110q6 7 6 16.5t-6 16.5l-195 194q-6 7 -6 16.5t6.5 16.5t16 7t16.5 -7l195 -194q20 -21 20 -50t-20 -49l-110 -110q-20 -20 -49 -20zM891.5 -120q-55.5 0 -95.5 40
l-283 283q-7 7 -7 16.5t7 16.5t16.5 7t16.5 -7l283 -283q26 -26 62.5 -26t62 25.5t25.5 62t-26 61.5l-283 284q-7 7 -7 16.5t6.5 16.5t16.5 7t17 -7l283 -284q39 -39 39 -94.5t-39 -95t-94.5 -39.5zM367 157q-72 0 -139.5 28t-120.5 80q-80 81 -101 193.5t25 216.5
q4 9 13 12.5t18 -0.5t12.5 -13t-0.5 -18q-40 -90 -22 -189t88 -169q76 -75 180 -90.5t198 34.5q9 4 18 1.5t13.5 -11t2 -18t-11.5 -13.5q-82 -44 -173 -44zM705 435q-2 0 -4 1q-10 1 -15 9t-3 18q15 79 -8 156t-80 134q-70 70 -169 88t-189 -22q-9 -4 -18 -0.5t-13 12.5
t-0.5 18t12.5 13q104 46 216.5 25t193.5 -101q65 -66 91.5 -154t8.5 -178q-1 -8 -7.5 -13.5t-15.5 -5.5z" />
    <glyph glyph-name="uniE602" unicode="&#xe602;" horiz-adv-x="3129" 
d="M1370 630q0 -15 -9 -24q-10 -10 -23 -8q-6 0 -15 7q-12 12 -20 24q-11 18 -44 49q-38 38 -55 52q-33 27 -61 42q-37 21 -41 32q-5 13 3 25q6 13 24 15q15 2 72 -38q59 -43 98 -82q41 -40 58 -65q13 -20 13 -29zM1703 766h-256q-11 0 -21.5 7.5t-7.5 24.5q0 13 9 20
q10 8 21 8h550q8 0 18 -8q8 -7 8 -21q0 -15 -10 -22q-7 -7 -16 -7h-234zM24 580q-21 5 -21 23q-2 17 5 24q3 7 64 25q56 16 117 41q57 23 113 52q61 33 96 56q42 27 61 45q22 19 31 23q6 3 21 6q16 0 26 -6q14 -8 43 -29q8 -7 79 -51q19 -12 115 -59q64 -32 137 -55
q71 -22 81 -32q7 -7 9 -20q2 -11 -7.5 -23t-24.5 -9q-5 0 -21 4q-13 4 -119 45q-99 38 -191 90q-90 50 -104 62q-17 12 -20 12q-6 0 -16 -6l-40 -30q-72 -49 -131 -78q-54 -26 -150 -64q-90 -36 -121 -41q-27 -5 -32 -5zM423 229q82 -89 168 -139q104 44 131 61q32 21 78 51
q47 32 64 47q13 14 35 26q15 8 29 -8q12 -16 9 -29q-2 -10 -41 -42q-28 -22 -101 -68q-62 -36 -146 -73q4 -2 23.5 -10.5t34.5 -13.5q28 -13 111 -35q67 -19 104 -25l50 -7q25 -5 34 -16q6 -8 6 -30t-31 -20q-46 4 -142 27q-113 29 -198 69q-83 39 -139 84q-67 58 -88 79
q-37 37 -60 74h-140v-269q134 19 200 46t77 27q13 0 22 -9t9 -21q0 -20 -43 -37q-34 -13 -73 -24q-50 -15 -122 -31q-90 -22 -110 -20q-19 2 -29 13q-10 9 -8 22q0 7 6 19q8 15 8 27v524q0 36 18 56t61 20h547q35 0 49 -14q15 -15 21 -32q8 -20 8 -39v-168q0 -64 -32 -75
q-35 -12 -54 -12zM792 429v37q0 18 -5 27q-4 10 -12 12q-9 3 -29 3h-482q-32 0 -40 -6q-10 -7 -12 -15q-3 -12 -3 -27v-33h583v2zM792 374h-583v-88h534q20 0 29 4.5t14 13.5t5 32v38h1zM458 734q16 16 38 -1q11 -9 35 -43q8 -11 32 -47q8 -16 6 -28q0 -12 -14 -21
q-14 -10 -27 -3q-4 1 -15 15l-23 38q-12 19 -25 34q-16 19 -19 29q-3 12 12 27zM1233 -7q2 3 5.5 7.5t3.5 5.5l32 41q11 13 37 49q27 39 33 46q13 15 20 17q8 2 22 -5q11 -6 13 -20q2 -11 -10 -32q-7 -9 -81 -112q-74 -100 -115 -98q-8 0 -21 7q-12 3 -12 20q0 4 4 16
q3 7 6.5 22.5t3.5 48.5l16 406q0 16 -4 28q-5 11 -12 16q-10 7 -25 7h-43q-14 0 -21 9q-8 10 -8 20q0 12 8 19q7 10 21 10l61 -2q44 0 58 -17q10 -10 19 -32q4 -16 4 -36zM1763 316h274q8 0 19 -8q7 -5 7 -22q0 -13 -9 -22q-10 -7 -17 -7h-274v-356q0 -11 -9.5 -20t-21.5 -9
t-21 9t-9 22v354h-260q-11 0 -21 7q-9 7 -9 23q0 12 9 21q10 8 21 8h261h60zM2558 298q-48 -30 -183 -101q-138 -72 -161 -70q-26 0 -35 9q-10 10 -6 24q3 12 12 20q12 10 39 19q22 7 94 41q74 34 98 47q5 3 107 63q78 48 135 99q-23 49 -35 61l-18 18q-118 -83 -209 -122
q-88 -37 -127 -52q-12 -4 -49 -17q-16 -2 -19 -1q-10 3 -14 9q-8 10 -8 21t3 17q2 4 13 9q2 2 7.5 4t15 5.5t16.5 6.5q47 16 87 35q65 30 124 61q76 40 136 90h-267q-7 0 -17 7q-9 7 -9 22q0 14 9 23q10 7 17 7h630q9 0 18 -9q8 -10 8 -21t-8 -22q-8 -7 -17 -7h-265
q-3 -2 -12.5 -9.5t-15.5 -12.5q43 -54 69 -99q21 -39 64 -137q28 -44 35 -57q39 -59 66 -99q48 -70 113 -117q25 -18 55 -41t38 -28q25 -18 29 -24q4 -5 4 -17t-9 -23q-7 -9 -21 -12q-14 0 -35 10q-19 10 -98 77q-80 70 -111 113q-40 52 -63 91q-1 -12 -1.5 -36t-1.5 -35
q-3 -43 -6 -63q-5 -31 -23 -85q-19 -56 -64 -86q-45 -31 -108 -29q-20 0 -52 5q-10 1 -19 2.5t-17 3t-10 1.5l-49 16q-35 10 -40 18q-3 5 -6 20q-2 11 10 23q13 10 27 10q7 0 37 -10q37 -14 61 -19q38 -7 59 -7q63 0 92 42q26 43 35 90q11 56 11 78l4 81
q-14 -12 -38.5 -31.5t-33.5 -27.5q-33 -28 -50 -39q-35 -25 -85 -53q-85 -47 -115 -63q-43 -22 -127 -56q-75 -31 -90 -31q-15 -2 -27 8q-11 9 -6 25q4 13 18 22q20 12 52 22q22 7 140 59q104 49 194 112q83 58 159 131q-9 37 -14 47l-17 37q-84 -65 -129 -93zM2594 782
q-9 32 -10 36q-5 14 -8 32q-2 13 5 25q6 11 22 13q17 3 29 -12q9 -8 16 -36t9 -33l4 -22h332q55 0 73 -28q20 -30 20 -46q2 -17 -3 -38q-5 -24 -22 -67q-13 -34 -23 -44q-8 -9 -29 -6q-20 2 -24 15q-4 12 12 47q1 2 2 5.5t4 11.5t5 15q9 28 9 37q-2 38 -58 38h-676
q-21 0 -34 -12t-13 -35v-109q0 -12 -11 -20.5t-23 -6.5q-11 0 -18 9q-6 8 -6 18v118q0 43 23 69t65 26h328zM3000 510q29 -3 29 -21q0 -21 -6 -31q-9 -16 -78 -87q-70 -73 -87 -75q-18 -2 -29 6q-9 8 -9 25q0 9 11 23q9 11 52 52q48 45 70 74q31 36 47 34zM1692 728h-201
q-9 0 -9 -9v-316q0 -9 9 -9h136l35 -28l6 28h23q9 0 9 9v316q2 3 -0.5 6t-7.5 3zM1679 421q0 -4 -5 -4h-12l-8 -26l-27 26h-116q-5 0 -5 4v278q0 5 5 5h165q4 0 4 -5v-278h-1zM1763 638v-252q0 -10 10 -10h23l6 -29l35 29h127q11 0 11 10v252q0 11 -11 11h-192q-9 -3 -9 -11
zM1786 618q0 5 4 5h156q4 0 4 -5v-212q0 -4 -4 -4h-106l-29 -28l-7 24q0 2 -2 4h-3h-9q-4 0 -4 4v212zM1526 559q0 -5 3.5 -8.5t8.5 -3.5t8.5 3.5t3.5 8.5t-3.5 8.5t-8.5 3.5t-8.5 -3.5t-3.5 -8.5zM1579 559q0 -5 4 -8.5t9 -3.5t8.5 3.5t3.5 8.5t-3.5 8.5t-8.5 3.5t-9 -3.5
t-4 -8.5zM1634 559q0 -5 4 -8.5t9 -3.5t8.5 3.5t3.5 8.5t-3.5 8.5t-8.5 3.5t-9 -3.5t-4 -8.5zM1802 505q0 -5 3.5 -8.5t9 -3.5t9 3.5t3.5 8.5t-3.5 9t-9 4t-9 -4t-3.5 -9zM1856 505q0 -5 3.5 -8.5t8.5 -3.5t8.5 3.5t3.5 8.5t-3.5 9t-8.5 4t-8.5 -4t-3.5 -9zM1911 505
q0 -5 3.5 -8.5t8.5 -3.5t8.5 3.5t3.5 8.5t-3.5 9t-8.5 4t-8.5 -4t-3.5 -9z" />
    <glyph glyph-name="uniE603" unicode="&#xe603;" 
d="M917 548q-33 78 -93.5 138.5t-138.5 93.5q-81 34 -170 34t-170 -34q-78 -33 -138.5 -93.5t-93.5 -138.5q-34 -81 -34 -170t34 -170q33 -78 93.5 -138.5t138.5 -93.5q81 -34 170 -34t170 34q78 33 138.5 93.5t93.5 138.5q34 81 34 170t-34 170zM666 21q-72 -30 -151 -30
t-151 30q-69 29 -123 83q-8 8 -16 18q12 92 90 155q84 70 200 70q115 0 200 -69q78 -64 90 -156q-7 -8 -16 -18q-54 -53 -123 -83zM393 518.5q0 50.5 36 86t86.5 35.5t86 -35.5t35.5 -86t-35.5 -86.5t-86 -36t-86.5 36t-36 86.5zM872 227q-12 -28 -28 -53q-26 83 -98 142
q-56 45 -127 66q31 23 49 59t18 77q0 71 -50 121t-121 50t-121 -50t-50 -121q0 -41 18 -76.5t50 -59.5q-72 -21 -128 -67q-72 -58 -98 -141q-16 26 -28 53q-30 72 -30 151t30 150q30 70 83.5 123.5t122.5 83.5q72 30 151 30t151 -30q69 -30 123 -83.5t83 -123.5
q30 -71 30 -150t-30 -151z" />
    <glyph glyph-name="uniE604" unicode="&#xe604;" 
d="M976 447l-4 24l-72 24q-9 30 -23 58l34 68l-14 20q-43 59 -101 101l-19 14l-68 -34q-27 14 -56 23l-24 73l-24 4q-38 6 -70 6t-71 -6l-24 -4l-24 -73q-30 -10 -56 -24l-68 35l-19 -14q-59 -43 -101 -102l-14 -19l34 -69q-14 -28 -23 -57l-72 -24l-4 -24q-6 -39 -6 -72
t6 -71l4 -24l72 -24q9 -30 23 -58l-33 -68l14 -19q21 -31 45 -55q23 -23 55 -47l19 -14l68 34q28 -14 56 -23l24 -73l24 -4q38 -6 70.5 -6t70.5 6l24 4l24 73q29 9 56 23l68 -34l20 14q31 23 54 47q23 23 46 54l14 20l-34 69q14 27 23 57l72 24l4 24q6 38 6 72q0 32 -6 71z
M909 334l-35 -12l-30 -10l-10 -31q-8 -27 -21 -53l-15 -28l30 -63q-13 -17 -27 -31t-31 -27l-61 31l-28 -15q-25 -13 -53 -22l-30 -10l-10 -31l-12 -35q-21 -2 -41 -2q-19 0 -41 2l-12 35l-10 31l-31 10q-27 8 -52 21l-28 16l-29 -15l-33 -16q-17 13 -31 27t-27 31l31 62
l-15 29q-14 26 -22 53l-9 31l-66 22q-2 21 -2 41t2 42l66 22l9 31q8 27 22 53l15 28l-15 30l-16 33q26 32 58 58l61 -31l29 15q25 14 52 22l31 10l10 31l12 35q22 2 41 2t41 -2l21 -66l31 -9q27 -9 52 -22l29 -15l61 31q32 -26 58 -59l-30 -62l15 -29q13 -26 21 -53l10 -31
l30 -10l35 -12q3 -22 3 -41q0 -20 -3 -42zM535 548q-71 0 -121 -50.5t-50 -122t50 -122t120.5 -50.5t121 50.5t50.5 122t-50.5 122t-120.5 50.5zM606 304q-30 -30 -71.5 -30t-71 29.5t-29.5 71.5t29.5 72t71 30t71 -30t29.5 -72t-29 -71z" />
    <glyph glyph-name="uniE605" unicode="&#xe605;" 
d="M762 406l-432 436q-8 7 -18 7t-17.5 -7.5t-7.5 -17.5t7 -18l416 -416l-416 -425q-7 -7 -7 -17.5t7.5 -18t17.5 -7.5t18 8l432 441q7 7 7 17.5t-7 17.5z" />
    <glyph glyph-name="uniE606" unicode="&#xe606;" 
d="M512 832q-185 0 -316.5 -131.5t-131.5 -316.5t131.5 -316.5t316.5 -131.5t316.5 131.5t131.5 316.5t-131.5 316.5t-316.5 131.5zM512 0q-104 0 -192.5 51.5t-140 140t-51.5 192.5t51.5 192.5t140 140t192.5 51.5t192.5 -51.5t140 -140t51.5 -192.5t-51.5 -192.5
t-140 -140t-192.5 -51.5zM672 384h-160v224q0 13 -9.5 22.5t-22.5 9.5t-22.5 -9.5t-9.5 -22.5v-256q0 -13 9.5 -22.5t22.5 -9.5h192q13 0 22.5 9.5t9.5 22.5t-9.5 22.5t-22.5 9.5z" />
    <glyph glyph-name="uniE607" unicode="&#xe607;" 
d="M331 48l559 559q9 9 9 22.5t-9 22.5l-68 68l-68 68q-9 9 -22 9t-23 -9l-559 -559q-5 -5 -7 -12l-62 -206q-4 -13 6 -23l1 -2l2 -1q10 -11 24 -6l205 61q7 3 12 8zM743 731l46 -45l44 -45q12 -11 0 -23l-79 -79l-112 113l79 79q11 12 22 0zM138 36l49 161l432 433
l113 -113l-432 -433z" />
    <glyph glyph-name="uniE608" unicode="&#xe608;" 
d="M771 599q-7 7 -7 16t6.5 16t16 7.5t16.5 -6.5q63 -60 97 -139v-2q34 -78 34 -165q0 -86 -32.5 -163t-91 -135.5t-135.5 -91t-163 -32.5t-163 32.5t-135.5 91t-91 135.5t-32.5 163q0 87 34 166v1q34 79 97 139q7 7 16.5 6.5t16 -7.5t6.5 -16t-7 -16q-56 -53 -87 -125v1
q-30 -71 -30 -149q0 -76 29 -145t81 -121t120.5 -81t145.5 -29t145.5 29t120.5 81t81 121t29 145q0 77 -30 147v1q-31 72 -87 125zM489 841q0 9 7 16t16.5 7t16 -7t6.5 -16v-381q0 -10 -6.5 -16.5t-16 -6.5t-16.5 6.5t-7 16.5v381z" />
    <glyph glyph-name="uniE609" unicode="&#xe609;" 
d="M887 599l-192 192q-5 4 -11 6.5t-12 2.5h-448q-40 0 -68 -28t-28 -68v-640q0 -40 28 -68t68 -28h576q40 0 68 28t28 68v512q0 13 -9 23zM704 691l115 -115h-115v115zM800 32h-576q-13 0 -22.5 9.5t-9.5 22.5v640q0 13 9.5 22.5t22.5 9.5h416v-192q0 -13 9.5 -22.5
t22.5 -9.5h160v-448q0 -13 -9.5 -22.5t-22.5 -9.5zM288 544h192q13 0 22.5 9.5t9.5 22.5t-9.5 22.5t-22.5 9.5h-192q-13 0 -22.5 -9.5t-9.5 -22.5t9.5 -22.5t22.5 -9.5zM608 416h-320q-13 0 -22.5 -9.5t-9.5 -22.5t9.5 -22.5t22.5 -9.5h320q13 0 22.5 9.5t9.5 22.5
t-9.5 22.5t-22.5 9.5zM608 224h-320q-13 0 -22.5 -9.5t-9.5 -22.5t9.5 -22.5t22.5 -9.5h320q13 0 22.5 9.5t9.5 22.5t-9.5 22.5t-22.5 9.5z" />
    <glyph glyph-name="uniE60A" unicode="&#xe60a;" 
d="M224 288q-40 0 -68 28t-28 68t28 68t68 28t68 -28t28 -68t-28 -68t-68 -28zM512 288q-40 0 -68 28t-28 68t28 68t68 28t68 -28t28 -68t-28 -68t-68 -28zM800 288q-40 0 -68 28t-28 68t28 68t68 28t68 -28t28 -68t-28 -68t-68 -28z" />
    <glyph glyph-name="uniE60B" unicode="&#xe60b;" 
d="M448 -32h-2h-2l-286 32q-39 1 -66.5 29t-27.5 67v608q0 40 28 68t68 28h2h1l287 -32q39 -1 66.5 -29t27.5 -67v-608q0 -40 -28 -68t-68 -28zM158 736q-12 -1 -21 -10t-9 -22v-608q0 -13 9.5 -22.5t22.5 -9.5h2h1l286 -32q13 1 22 10t9 22v608q0 13 -9.5 22.5t-22.5 9.5
h-2h-2zM609 -28q-12 0 -21 8t-11 20q-1 13 7 23.5t22 12.5l254 28h4q13 0 22.5 9.5t9.5 22.5v608q0 13 -9 22t-22 10l-253 -28q-13 -2 -23 6.5t-11.5 22t6.5 23.5t21 12l256 28h3q40 0 68 -28t28 -68v-608q0 -39 -27.5 -67t-66.5 -29l-253 -28h-4zM408 538h-208
q-13 0 -22.5 9.5t-9.5 22.5t9.5 22.5t22.5 9.5h208q13 0 22.5 -9.5t9.5 -22.5t-9.5 -22.5t-22.5 -9.5zM408 353h-208q-14 0 -23 9.5t-9 23t9 22.5t23 9h208q13 0 22.5 -9t9.5 -22.5t-9.5 -23t-22.5 -9.5zM408 170h-208q-13 0 -22.5 9t-9.5 22.5t9.5 23t22.5 9.5h208
q13 0 22.5 -9.5t9.5 -23t-9.5 -22.5t-22.5 -9zM824 537h-208q-13 0 -22.5 9.5t-9.5 22.5t9.5 22.5t22.5 9.5h208q13 0 22.5 -9.5t9.5 -22.5t-9.5 -22.5t-22.5 -9.5zM824 352h-208q-13 0 -22.5 9.5t-9.5 23t9.5 22.5t22.5 9h208q13 0 22.5 -9t9.5 -22.5t-9.5 -23t-22.5 -9.5z
M824 169h-208q-13 0 -22.5 9t-9.5 22.5t9.5 23t22.5 9.5h208q13 0 22.5 -9.5t9.5 -23t-9.5 -22.5t-22.5 -9z" />
    <glyph glyph-name="uniE60C" unicode="&#xe60c;" 
d="M953 -12l-152 163q96 115 96 265q0 113 -56 209t-152 151.5t-208.5 55.5t-208.5 -55.5t-151.5 -151.5t-55.5 -209t55.5 -208.5t151.5 -151.5t209 -56q90 0 172 37q12 6 16.5 18.5t-1 24.5t-18 16.5t-24.5 -0.5q-69 -32 -145 -32q-96 0 -177 47t-128 128.5t-47 177
t47 176.5t128 128t176.5 47t176.5 -47t128.5 -128t47.5 -177q0 -141 -98 -244q-10 -9 -9.5 -22.5t9.5 -22.5q1 0 2 -1t1.5 -1t1 -1.5t1.5 -2.5l166 -177q9 -10 23 -10q12 0 22 9t10.5 22t-9.5 23z" />
    <glyph glyph-name="uniE60D" unicode="&#xe60d;" 
d="M325 34zM882 34zM236 19zM960 19zM64 107zM958 107zM65 37zM163 607q-31 0 -44.5 -31t9.5 -54l349 -350q15 -15 35 -15t35 15l349 350q23 22 10 53.5t-45 31.5h-698zM960 37z" />
    <glyph glyph-name="uniE60E" unicode="&#xe60e;" 
d="M133 599h758q14 0 24.5 11t10.5 25.5t-10.5 25t-24.5 10.5h-758q-15 0 -25.5 -10.5t-10.5 -25t10.5 -25.5t25.5 -11zM891 420h-758q-15 0 -25.5 -10.5t-10.5 -25.5t10.5 -25.5t25.5 -10.5h758q14 0 24.5 10.5t10.5 25.5t-10.5 25.5t-24.5 10.5zM891 169h-758
q-15 0 -25.5 -10.5t-10.5 -25.5t10.5 -25.5t25.5 -10.5h758q14 0 24.5 10.5t10.5 25.5t-10.5 25.5t-24.5 10.5z" />
    <glyph glyph-name="uniE60F" unicode="&#xe60f;" horiz-adv-x="1025" 
d="M1022 357q0 -105 -51.5 -204.5t-145.5 -171.5t-209 -96q-125 -26 -245.5 8.5t-211.5 121t-132 207.5q-49 145 -9.5 294t153.5 250q111 98 253 122q179 31 339 -59q12 -7 16 -19.5t-2.5 -24.5t-19.5 -15.5t-25 3.5q-72 41 -147 53q-198 31 -353 -92q-135 -107 -162 -275
q-33 -209 106 -369q96 -112 246 -143q138 -29 269 29t203 179q73 123 62 266q-7 94 -53 178q-4 8 -5 9q-6 12 -2 24t15 18q12 7 24 3.5t19 -15.5q23 -38 38 -83q30 -83 30 -198zM645 373q-5 3 -5 11t5 11l-221 -147q1 1 4 1q6 1 12 -2.5t9 -8.5q1 -3 1 -4v300q0 -1 -1 -4
q-3 -6 -9 -9t-12 -2q-3 0 -4 1zM679 424l-221 148q-24 16 -47 4t-23 -42v-300q0 -30 23 -42t47 4l221 148q23 15 23 40t-23 40z" />
    <glyph glyph-name="uniE610" unicode="&#xe610;" horiz-adv-x="8910" 
d="M12 610q0 1 5 7.5t9 11.5q14 18 31 40q11 16 60 77q44 53 66 68q19 16 31 18q24 -3 24 -19q0 -9 -7 -22q-8 -3 -33 -27q-9 -9 -14 -15q51 15 90 15q14 0 31 -4q17 -8 27 -18q15 -19 15 -37q0 -24 -26 -73q-18 -30 -28 -45h17q33 0 59 -11q23 -12 40 -31q15 -18 15 -48
v-574q-4 -15 -17 -27q-16 -11 -27 -11q-8 2 -20 16q-15 14 -15 20q0 7 11 18v15q0 9 0.5 26.5t1.5 33.5q0 20 0.5 62t0.5 63h-12q-26 0 -85 -6v-79q0 -63 5 -91q0 -11 -8 -29q-12 -17 -21 -17q-8 0 -18 7q-11 17 -11 32q-2 8 -2 27v145q-47 -6 -73 -9l-26 -6q0 -35 1 -52
q0 -52 2 -74q0 -18 3 -33q3 -17 5 -19q0 -17 -6 -32t-24 -15q-20 2 -29 26q-11 56 -11 321q0 112 11 276q0 1 -0.5 7t-0.5 10q0 3 -0.5 8t-0.5 6q0 22 27 22q13 -2 28 -12q52 15 100 25q31 27 64 79q19 39 19 47q0 14 -24 14q-47 0 -141 -43l-3 -1q-1 -2 -2 -3
q-36 -51 -55 -91q-1 -2 -2 -4.5t-3 -5.5t-2 -4q-9 -10 -26 -10q-12 0 -19 15q-11 13 -11 29q1 5 4 11zM207 170v154q-57 -7 -74 -10q-20 -5 -25 -5q-1 -29 -1 -74v-74zM207 365v109q0 14 -2 41l-1 3v6q-40 -14 -76 -28l-9 -6q-3 -12 -3 -23q-3 -63 -6 -112q30 2 97 10z
M270 530q0 -3 -4 -24q-5 -21 -5 -40v-96q65 8 70 9q25 5 27 5h3v97q0 18 -7 36q-14 21 -53 22q-11 0 -33 -2q2 -6 2 -7zM261 176q58 5 81 10q14 2 18 4q0 95 1 142q-3 0 -7 1l-3 1h-16q-8 0 -74 -5v-153zM820 795q26 -7 48 -31q20 -24 20 -55q0 -70 -14 -136
q-14 -60 -28 -83q-10 -10 -19 -10q-13 0 -28 13q-16 11 -16 26q0 5 3 11q2 2 3.5 7t2.5 6q31 87 31 168q0 31 -48 31q-24 0 -78 -4l-2 -3q-6 -4 -28 -29q-18 -21 -64 -103q-35 -64 -48 -101q-4 -10 -7 -15q-9 -10 -25 -10q-11 0 -20 15q-9 12 -9 29q0 7 2 11l15 18
q11 20 26 45q19 35 54 87q6 11 16.5 26t13.5 18q-52 -9 -101 -24q-16 -6 -18 -7q-14 -6 -17 -6q-39 9 -39 57l3 9q179 46 318 46q26 0 53 -6zM735 -118q-11 -10 -20 -10q-17 1 -25 14q-11 20 -11 59v155q-82 -10 -135 -18q-39 -7 -47 -7q-13 0 -24 15q-11 14 -11 27
q0 7 5 11q6 4 16 4q24 0 43 2q11 0 100 9q8 1 26 2.5t27 2.5q-1 49 -1 146q-66 -8 -138 -22q-3 -2 -6 -2q-3 -6 -3 -12q-9 -33 -9 -58q0 -9 1 -15q-4 -1 -11 -1q-28 0 -39 12q-11 9 -11 26q0 19 13 60q29 79 57 126q12 24 24 30q6 3 12.5 3t13.5 -5q8 -6 9 -15
q0 -1 0.5 -2.5t0.5 -2.5q0 -5 -3 -8q-8 -8 -13 -21q-14 -26 -26 -59l118 12q2 0 5.5 0.5t4.5 0.5q-1 34 -1 105l-2 25q0 17 22 17q12 0 30 -9q17 -12 17 -21q0 -4 -6 -17q-4 -14 -4 -30v-64q43 4 71 9q12 2 23.5 3.5t17 2.5t7.5 1q11 0 29 -11q19 -16 19 -25q0 -25 -30 -25
q-12 0 -22 1q-6 0 -12.5 0.5t-7.5 0.5q-21 0 -95 -6q0 -103 1 -144q27 2 112 9q13 0 19 2q5 2 9 2q10 0 34 -12q19 -15 21 -29q-2 -19 -48 -19q-43 2 -51 2q-14 0 -96 -4q2 -121 5 -175q0 -5 5 -21q0 -18 -10 -27zM1963 547q-3 -12 -8 -12q-16 0 -31 1q-8 0 -19 0.5t-13 0.5
q-14 0 -55 -2l-1 -134q2 -4 4 -5q16 -16 32 -28q16 -14 30 -22q12 -9 23 -13q7 0 21 -3q8 -6 8 -15q0 -8 -3 -18q-4 -10 -11 -19q-7 -8 -21 -8q-7 0 -22 12q-17 11 -41 35q-14 11 -21 19l-1 -91q0 -163 5 -257q2 -29 7 -55q1 -2 3 -7t3 -8q3 -6 3 -15q0 -11 -9.5 -17.5
t-19.5 -6.5q-53 0 -53 56v57q2 131 2 233v128q-13 -26 -42 -100q-29 -72 -43 -130l-7 -19q-13 -12 -31 -12q-14 0 -25 18q-11 15 -11 35q0 6 3 14q3 5 19 22q3 10 25 57q12 29 52 110q36 74 56 100q1 2 4 5v77q-44 -6 -84 -19q-17 -6 -22 -6q-9 0 -18 19q-8 15 -8 35
q0 9 6 12q71 14 118 19q5 0 8 1v46q0 69 -2 96q-3 18 -3 33q-4 11 -4 21q0 12 19 25q18 17 30 17q9 0 23 -7q13 -9 13 -18q0 -2 -0.5 -5.5t-1.5 -11t-2 -13.5q-5 -22 -7 -59q-2 -25 -2 -97v-23q8 0 23.5 0.5t23.5 0.5q29 0 54 -3q25 -4 25 -15q0 -7 -0.5 -17.5t-0.5 -13.5z
M2223 759q-37 -44 -70 -95q127 31 219 31q39 0 69 -14q30 -16 46 -35q20 -23 20 -57q-3 -215 -16 -491q-4 -100 -5 -108q-1 -39 -6 -70q-4 -15 -18 -28q-16 -12 -29 -12q-8 2 -23 16q-14 15 -14 22q0 8 11 19q8 17 14 88q17 279 17 544q0 23 -8 43q-18 24 -69 25
q-87 0 -214 -44q-23 -11 -27 -11q-10 0 -17 3q-23 -39 -44 -84q-22 -47 -28 -88q-59 6 -59 48q0 21 34 82q85 145 138 217q43 54 62 68q6 4 13 4q19 0 29 -11q9 -13 9 -22q0 -12 -9 -18q-12 -8 -25 -22zM2014 121q0 76 51 178q55 107 91 151q7 11 7 17q6 4 16 4q13 0 33 -14
q18 -18 19 -29q0 -10 -9 -13q-43 -41 -95 -139q-51 -102 -51 -154q0 -32 35 -32q57 0 137 52q-6 14 -8 26q-16 57 -16 86q0 12 6 21q6 7 19 8q11 -1 24 -6q11 -9 13 -19q0 -13 8 -51q9 -44 24 -85q17 -40 26 -51q3 -7 8 -10q4 -8 4 -12q0 -6 -9 -15q-16 -20 -31 -20
q-13 0 -37 48q-7 11 -10 22q-39 -24 -94 -40q-34 -8 -66 -8q-95 0 -95 85zM3546 758l-19 -17l68 18q110 28 201 28q44 0 73 -6q29 -10 53 -31q24 -25 24 -54q0 -87 -151 -207q-10 -9 -34 -26q90 -51 177 -87q91 -39 155 -51q5 -1 17 -7q8 -7 8 -22q0 -12 -11 -27
q-9 -15 -30 -15q-45 0 -147 48q-103 44 -225 125q-147 -91 -384 -181q-39 -14 -64 -14q-29 6 -37 41q-1 8 -1 24q20 0 50 9q227 79 368 165q-119 75 -144 94q-53 31 -79 45q-3 0 -3 2q-37 -52 -58 -85q-27 -43 -34 -78q-60 8 -60 52q0 16 39 72q92 127 160 192q49 49 71 62
q7 5 16 5q19 0 30 -12q9 -12 9 -23q0 -12 -10 -19q-16 -9 -28 -20zM3961 -55q0 -25 -24 -27q-10 0 -31 4q-16 3 -31 3q-50 0 -170 -6q-118 -4 -196 -15q-7 -1 -16 -3q-3 -11 -9 -17q-11 -9 -25 -9q-19 0 -27 9q-10 11 -10 20q-34 99 -34 280q0 4 -2 16q-2 4 -2 13q0 6 6 12
q8 4 22 4q17 0 29 -6q224 27 407 27q29 0 60 -10q26 -12 46 -33q20 -20 20 -47q0 -67 -11 -130q-5 -22 -16 -67q14 -11 14 -18zM3469 1q3 -31 7 -43l109 9q50 4 135 8q40 3 83.5 5.5t49.5 3.5q1 0 4.5 0.5t6.5 0.5l6 20q22 84 22 152q-7 37 -60 37q-106 0 -218 -13
q-97 -13 -136 -18q-11 -4 -17 -4v-2q-1 -113 8 -156zM3538 605q89 -61 154 -100q9 7 18 13q165 116 167 180q0 33 -75 33q-87 0 -200 -32q-88 -24 -135 -47q11 -8 71 -47zM5178 753q115 23 208 23q46 0 76 -14q27 -12 37 -26q8 -16 8 -35q0 -16 -17 -55q-19 -37 -62 -74
q-10 -8 -11 -9q62 2 88 2q30 0 62 -6q32 -8 57 -30q22 -26 22 -56q0 -75 -12 -138q-8 -38 -10 -46q18 -15 19 -29q-1 -21 -57 -23q-58 2 -59 2q-69 0 -230 -13q-171 -18 -271 -32q-25 -5 -43 -7q-1 -46 -1 -126q0 -61 31 -92q31 -32 118 -32q211 0 535 51q2 3 9 5
q39 0 44 -31q-2 -25 -32 -34q-304 -47 -539 -47q-133 0 -183 47q-51 50 -51 130q0 157 6 301q3 111 3 142q0 11 10 22q9 6 16 6q13 0 28 -7q9 -7 12 -8q141 24 267 36q50 23 90 52q46 31 64 56q19 24 19 42q0 19 -46 19q-71 0 -153 -15q-87 -18 -128 -32q-35 -13 -47 -15
q-65 -62 -126 -133q-25 -25 -67 -86q-33 10 -35 60q0 38 103 134q51 50 86 79q55 47 86 69q72 50 91 50q25 -2 35 -18q0 -29 -8 -35q-2 -5 -42 -24zM5004 254q22 0 168 17q46 4 71 7l-1 211q-102 -12 -208 -34l-33 -8q-5 -3 -9 -3q-3 -24 -3 -55q-4 -94 -4 -135h19z
M5542 302l3 9q27 85 27 164q0 31 -58 31q-101 0 -200 -10q-1 -3 -1 -7l1 -205zM6866 775q106 -50 210 -99q139 -64 187 -72q6 -3 21 -4q26 -4 26 -30q-1 -14 -7 -25q-6 -13 -15 -18q-8 -4 -21 -4q-11 0 -43 14q-33 12 -79 40q-229 118 -284 144q-50 23 -52 24
q-155 -86 -284 -205q-46 -43 -57 -77q-54 6 -54 45q1 18 63 72q151 122 262 187q77 47 114 61q6 4 13 4q15 0 26 -10q8 -14 8 -21q0 -11 -8 -16q-21 -8 -26 -10zM6568 -88q-35 25 -35 77q0 205 25 461q3 27 3 33l1 16q0 20 21 23q16 0 34 -9q11 -6 17 -14q232 25 422 25
q24 0 48 -11q22 -11 36 -28q17 -20 17 -44q0 -28 -4 -84q3 -6 3 -9q0 -6 -4 -7l-3 -39l-9 -63q19 -15 19 -26q0 -28 -35 -28q-11 0 -23 1q-14 3 -22 3q-36 0 -173 -9q-137 -6 -296 -28l-11 -3q-4 -69 -4 -161q0 -30 20 -38q19 -10 79 -10q34 0 93 14q56 16 84 30q4 5 11 5
q13 0 20 -11t7 -23q0 -11 -13 -21q-23 -15 -86 -30q-62 -16 -118 -16q-86 0 -124 24zM6816 226q152 10 215 18q15 2 44 5q0 8 3 20q7 48 8 63h-18q-59 0 -181 -8q-103 -8 -215 -23q-56 -9 -63 -9l-7 -81q122 8 214 15zM6652 346l134 11q105 11 296 22q2 0 4.5 1t3.5 1
q2 36 2 57q-6 34 -48 34q-118 0 -240 -12q-113 -12 -151 -18q-20 -5 -26 -5q-7 -49 -13 -93zM6891 555q-8 -11 -28 -13q-4 0 -5 5q-5 9 -23 28q-18 18 -35 27q-13 9 -24 13q-3 1 -7 2.5t-5 1.5q-4 3 -4 11q0 14 9 26q10 13 26 13q12 0 34 -14q25 -17 47 -42q24 -28 24 -39
q0 -10 -9 -19zM7093 18l131 -59l30 -9q17 -3 17 -9q0 -14 -4 -33q-5 -10 -16 -20q-12 -5 -24 -5q-15 0 -44 17q-19 14 -102 58q-92 46 -201 92q-6 2 -31 11.5t-37 14.5q-25 8 -44 19q-8 7 -8 16t9 23q11 14 21 14q6 0 14 -8q21 -11 102 -41q30 -12 83 -34q11 6 27 16
q29 18 76 43q53 28 71 35q26 8 38 8q33 -4 33 -25q0 -14 -11 -26q-14 -2 -45 -14q-37 -13 -69 -27q-39 -19 -60 -33l-3 -2q20 -8 47 -22zM8380 547q-3 -13 -8 -13q-17 0 -30 1q-10 0 -20.5 0.5t-12.5 0.5q-11 0 -69 -2l-3 -131q6 -5 9 -7q14 -14 35 -29q16 -13 35 -24
q14 -8 29 -11q2 0 19 -5q8 -6 8 -15q0 -7 -3 -18q-4 -10 -11 -19q-5 -8 -20 -8q-8 0 -26 12q-25 17 -46 36q-17 13 -30 24l-1 -93q0 -144 7 -257q2 -31 7 -56q1 -2 2.5 -7t2.5 -8q3 -6 3 -15q0 -11 -9 -18q-10 -6 -21 -6q-52 0 -52 56v57q2 131 2 233v130q-23 -48 -46 -102
q-30 -67 -48 -130q-5 -14 -7 -19q-13 -12 -31 -12q-14 0 -24 18q-12 14 -12 35q0 8 2 13l20 23l27 57q17 35 57 110q37 72 60 100l2 2v79q-56 -7 -96 -17q-20 -7 -24 -7q-10 0 -19 19q-8 15 -8 35q0 9 6 12q68 12 133 18q5 0 8 1v49q0 68 -2 95q-3 18 -3 34q-4 11 -4 20
q0 12 19 26q19 16 30 16q8 0 24 -7q13 -9 13 -18q0 -1 -0.5 -5t-1.5 -11t-2 -13q-6 -23 -7 -60q-2 -25 -2 -97v-24q10 0 30.5 0.5t31.5 0.5q28 0 52 -3q27 -4 27 -16q0 -14 -2 -30zM8433 566q6 -2 12 -2q4 -1 15 -1q9 0 165 18q8 1 39 4t45 4v39q0 71 -2 99q-3 19 -3 36
q-4 13 -4 22q0 12 19 28q20 17 32 17q8 0 26 -7q13 -10 13 -19q0 -3 -5 -29q-5 -23 -6 -60q-2 -24 -2 -96v-21q33 4 36 5q33 8 40 8q11 0 24 -5q7 -4 22 -15q10 -7 10 -24q0 -12 -8 -22q-9 -9 -23 -9q-8 0 -14 1q-5 0 -11.5 0.5t-9 0.5t-10 0.5t-11.5 0.5q-10 0 -46 -2
l-4 -289q0 -149 7 -255q0 -24 6 -54l6 -16q3 -9 3 -17q0 -13 -9 -19q-11 -6 -22 -6q-56 0 -56 59v60q2 129 2 227v196q-14 -15 -19 -21q-47 -49 -96 -125q-49 -71 -83 -143q-35 -71 -51 -88q-13 -9 -23 -9q-29 0 -53 53q12 8 22 19q12 9 54 76q45 71 111 160q72 93 107 124
q20 17 31 24v39l-40 -4q-107 -9 -158 -21q-53 -11 -66 -11q-11 0 -18 8q-11 9 -14 18q-4 7 -4 20q0 11 18 27z" />
    <glyph glyph-name="uniE611" unicode="&#xe611;" 
d="M730 -35l-416 425l416 416q7 8 7 18t-7.5 17.5t-17.5 7.5t-18 -7l-432 -436q-7 -7 -7 -17.5t7 -17.5l432 -441q8 -8 18 -8t17.5 7.5t7.5 18t-7 17.5z" />
    <glyph glyph-name="uniE612" unicode="&#xe612;" 
d="M66 510q-9 0 -15.5 6.5t-6.5 15.5v256q0 8 6.5 14.5t15.5 6.5t15 -6.5t6 -14.5v-256q0 -9 -6 -15.5t-15 -6.5zM300 510h-234q-9 0 -15.5 6.5t-6.5 15t6.5 15t15.5 6.5h234q9 0 15.5 -6.5t6.5 -15t-6.5 -15t-15.5 -6.5zM514 276q-9 0 -15.5 6t-6.5 15v384q0 9 6.5 15
t15.5 6t15 -6t6 -15v-384q0 -9 -6 -15t-15 -6zM635 211q-10 0 -16 7l-186 213q-6 6 -5 15t7.5 15t15.5 5t14 -7l186 -213q6 -6 5.5 -15t-7.5 -15q-6 -5 -14 -5zM513.5 -87q-95.5 0 -182 37t-149.5 100t-100.5 150t-37.5 182q0 9 6.5 15.5t15.5 6.5t15 -6.5t6 -15.5
q0 -115 57 -213.5t155.5 -155.5t214 -57t214 57t155.5 155.5t57 214t-57 214t-155.5 155.5t-213.5 57q-130 0 -237.5 -72t-157.5 -192q-3 -8 -11 -11.5t-16.5 0t-12 11.5t0.5 16q54 132 172.5 211.5t261.5 79.5q95 0 182 -37.5t150 -100.5t100 -149.5t37 -182t-37 -182.5
t-100 -150t-150 -100t-182.5 -37z" />
    <glyph glyph-name="uniE613" unicode="&#xe613;" 
d="M908.5 404q-8.5 0 -14 -6t-5.5 -14v-339q0 -29 -20.5 -49.5t-49.5 -20.5h-616q-29 0 -49.5 20.5t-20.5 49.5v677q0 29 20.5 49.5t49.5 20.5h362q8 0 14 5.5t6 14t-6 14.5t-14 6h-362q-46 0 -78 -32.5t-32 -77.5v-677q0 -45 32 -77.5t78 -32.5h616q45 0 77.5 32.5
t32.5 77.5v339q0 8 -6 14t-14.5 6zM943 778l-36 35q-17 18 -42 18t-43 -18l-422 -422q-2 -2 -3 -4l-128 -227q-7 -14 4 -25q6 -5 14 -5q5 0 10 3l220 135q2 1 3 3l423 422q17 18 17 42.5t-17 42.5zM419 344l55 -55l-132 -82zM914 721l-408 -408l-64 64l409 408q5 6 13.5 6
t14.5 -6l35 -35q6 -6 6 -14.5t-6 -14.5z" />
    <glyph glyph-name="uniE614" unicode="&#xe614;" 
d="M717 575h-91v56q0 19 -13 32t-32 13h-217q-18 0 -31.5 -13t-13.5 -32v-56h-89q-11 0 -19 -8.5t-8 -19.5v-26q0 -12 8 -20t19 -8h34v-434q0 -22 15.5 -37t37.5 -15h308q22 0 37 15t15 37v434h40q11 0 19.5 8t8.5 20v26q0 11 -8.5 19.5t-19.5 8.5zM510 493v-441h-78v441h78
zM350 631q0 6 4 10t10 4h217q6 0 10.5 -4t4.5 -10v-56h-246v56zM309 59v434h78v-441h-70q-8 0 -8 7zM632 59q0 -7 -6 -7h-71v441h77v-434z" />
    <glyph glyph-name="uniE615" unicode="&#xe615;" 
d="M163 320q-23 -57 -26 -104t15 -57q12 -7 30.5 7t37.5 43q14 -63 68 -111q-27 -10 -43.5 -27t-16.5 -36q0 -32 42 -54.5t102 -22.5q53 0 93 18.5t48 46.5h17q8 -28 48 -46.5t93 -18.5q60 0 101.5 22.5t41.5 54.5q0 40 -60 63q54 49 69 111q19 -29 37 -43t31 -7
q18 10 15 57t-26 104q-18 43 -40 74t-41 38v11q0 34 -16 62v4q0 15 -6 28q-5 120 -74 198.5t-181.5 78.5t-181.5 -79t-74 -198q-7 -13 -7 -29q0 -2 1 -4q-17 -27 -17 -61q0 -4 1 -11q-19 -8 -41.5 -38.5t-39.5 -73.5z" />
    <glyph glyph-name="uniE616" unicode="&#xe616;" 
d="M837 572.5q50 -86.5 50 -188.5t-50 -188.5t-136.5 -136.5t-188.5 -50t-188.5 50t-136.5 136.5t-50 188.5t50 188.5t136.5 136.5t188.5 50t188.5 -50t136.5 -136.5zM693.5 270.5q7.5 -8.5 12 -11t8.5 -1.5t5.5 4t3 9t2.5 11t1 11v8v3q-5 26 -19 51t-21 32.5t-12 11.5
q3 16 1 27t-4 17.5t-5.5 11t-5 5.5t-2.5 1q0 33 -9 59.5t-21 43t-28.5 28t-30 16.5t-28 8t-20 3.5t-9.5 0.5t-9.5 -0.5t-20 -3.5t-28 -8t-30 -16.5t-28.5 -28t-21 -43t-9 -59.5l-6 -4q-5 -3 -9 -18.5t-1 -39.5q-1 0 -11 -11t-23 -34.5t-18 -49.5v-5q0 -5 0.5 -12t2 -14.5
t4.5 -11.5t8 -4t13.5 9t19.5 26l3 -8q4 -9 12.5 -24.5t17.5 -28.5l-9 -4q-10 -5 -19 -16.5t-7 -27.5v-3t4.5 -9.5t12.5 -11.5t25.5 -8.5t40.5 -3.5l15 3q16 1 35 8.5t27 18.5h16q8 -11 29 -18.5t31 -9t17 -2.5q23 0 40.5 3.5t25.5 8.5t12 11.5t4.5 9t0.5 3.5q1 10 -2.5 18.5
t-8.5 13.5t-11.5 9t-9 5t-3.5 2q22 29 33 61q8 -13 15.5 -21.5z" />
    <glyph glyph-name="uniE617" unicode="&#xe617;" 
d="M837 572.5q50 -86.5 50 -188.5t-50 -188.5t-136.5 -136.5t-188.5 -50t-188.5 50t-136.5 136.5t-50 188.5t50 188.5t136.5 136.5t188.5 50t188.5 -50t136.5 -136.5zM456 277q-6 18 -6 37q0 59 44 101t108 42q11 0 17 -2q-12 54 -63.5 90t-117.5 36q-74 0 -126.5 -44.5
t-52.5 -107.5q0 -72 71 -121l-18 -54l63 32q45 -10 63 -10q11 0 18 1zM396 498.5q6 -6.5 6 -16t-6 -16t-16 -6.5q-11 0 -19.5 6.5t-8.5 15.5q0 10 8.5 16.5t19.5 6.5q10 0 16 -6.5zM765 317q0 53 -45 91.5t-107 38.5q-64 0 -108 -38.5t-44 -91.5q0 -55 44 -93t108 -38
q18 0 54 10l49 -27l-14 44q63 48 63 104zM486 466.5q-8 6.5 -8 15.5q0 10 8.5 16.5t19 6.5t16.5 -6.5t6 -16.5q0 -9 -6.5 -15.5t-16.5 -6.5q-11 0 -19 6.5zM579.5 368.5q6.5 -5.5 6.5 -11.5q0 -7 -6 -12.5t-17 -5.5q-6 0 -11.5 5.5t-5.5 12.5q0 6 5.5 11.5t11.5 5.5
q10 0 16.5 -5.5zM678.5 368.5q6.5 -5.5 6.5 -11.5q0 -7 -6.5 -12.5t-16.5 -5.5q-6 0 -12 5.5t-6 12.5q0 6 6 11.5t12 5.5q10 0 16.5 -5.5z" />
    <glyph glyph-name="uniE618" unicode="&#xe618;" 
d="M670 488q9 0 28 -1q-19 92 -104.5 152.5t-195.5 60.5q-124 0 -211 -75.5t-87 -183.5q0 -119 119 -204l-30 -92l104 54q79 -15 105 -15h28q-10 31 -10 64q0 100 74 170t180 70zM509 571q17 0 27.5 -10.5t10.5 -27.5t-10.5 -27.5t-27.5 -10.5t-30.5 10.5t-13.5 27
t13.5 27.5t30.5 11zM301 495q-18 0 -31.5 10.5t-13.5 27t13.5 27.5t31.5 11q17 0 27 -10.5t10 -27.5t-10 -27.5t-27 -10.5zM941 252q0 90 -75.5 155t-177.5 65q-106 0 -179.5 -64.5t-73.5 -155.5q0 -92 73.5 -156t179.5 -64q26 0 90 15l81 -46l-22 76q104 81 104 175z
M606 290q-11 0 -20 9.5t-9 20.5q0 12 9 21.5t20 9.5q16 0 27 -9.5t11 -21.5t-11 -21t-27 -9zM770 290q-11 0 -20 9.5t-9 20.5q0 12 9 21.5t20 9.5q16 0 26.5 -9.5t10.5 -21.5t-10.5 -21t-26.5 -9z" />
    <glyph glyph-name="uniE619" unicode="&#xe619;" 
d="M512 635h-447v-670h4h53h390h390h53h4v670h-447zM883 605l-371 -346l-371 346h742zM883 -5h-742l283 264l-22 21l-305 -285h-2v610h2l415 -387l415 387h2v-610h-2l-305 285l-22 -21z" />
    <glyph glyph-name="uniE61A" unicode="&#xe61a;" 
d="M935 -98h1h-1q-6 166 -123 283q-68 68 -158 100q47 23 85 60q94 94 94 227t-94 227t-227 94t-227 -94t-94 -226.5t94 -227.5q37 -37 84 -60q-89 -32 -157 -100q-45 -45 -74 -99q-30 -57 -41 -112q-3 -14 -5 -37q-4 -32 -3 -38q2 -10 9 -18q7 -7 18.5 -7t19.5 8t8 19
q6 143 108 244q99 99 238 107q11 -1 22 -1t22 1q139 -8 238 -107q38 -38 64 -85q26 -48 36 -99q1 -7 4 -34q0 -5 5 -30q2 -9 8 -16q8 -7 19 -7t19 8t9 19q-1 0 -1 1zM533 309h-21h-22q-102 8 -172.5 84t-70.5 179q0 110 77.5 187.5t187 77.5t187.5 -77.5t78 -187.5
q0 -103 -70.5 -179t-173.5 -84z" />
    <glyph glyph-name="uniE61B" unicode="&#xe61b;" 
d="M512 -19q-132 0 -225.5 93.5t-93.5 225.5t93.5 225.5t225.5 93.5t225.5 -93.5t93.5 -225.5t-93.5 -225.5t-225.5 -93.5zM664 418q7 7 7 17t-7 17t-17 7t-17 -7l-118 -118l-118 118q-7 7 -17 7t-17 -7t-7 -17t7 -17l118 -118l-118 -118q-7 -7 -7 -17t7 -17t17 -7t17 7
l118 118l118 -118q7 -7 17 -7t17 7t7 17t-7 17l-118 118z" />
    <glyph glyph-name="uniE61C" unicode="&#xe61c;" 
d="M512 832q-185 0 -316.5 -131.5t-131.5 -316.5t131.5 -316.5t316.5 -131.5t316.5 131.5t131.5 316.5t-131.5 316.5t-316.5 131.5zM695 246q9 -9 9 -22.5t-9.5 -23t-22.5 -9.5t-23 10l-137 138l-138 -137q-10 -9 -23 -9t-22.5 9.5t-9.5 22.5t10 23l138 136l-138 138
q-9 9 -9 22.5t9.5 23t22.5 9.5t23 -10l137 -138l138 137q10 9 23 9t22.5 -9.5t9.5 -22.5t-10 -23l-138 -136z" />
  </font>
</defs>
</svg>
